#!OML:ASF H:\Pregnant\Project 1\Capture day 1\Session 1\femalepreg.ASF
:FULLY-SPECIFIED
:DEGREES
356
root 1.59305 15.7868 31.4066 -190.578 -87.6039 212.92
lowerback -19.735 2.36998 1.50195
upperback -6.57959 2.27407 1.67104
thorax 3.91543 0.931017 1.42548
lowerneck -20.1654 3.38396 4.58445
upperneck 24.9151 4.06796 -3.51049
head 11.6634 1.72887 -1.44202
rclavicle -7.60351e-015 3.18055e-015
rhumerus -35.3619 4.50952 -81.4856
rradius 22.8713
rwrist -21.7315
rhand -30.2686 -31.5026
rfingers 7.12502
rthumb -3.57681 -61.4524
lclavicle -7.60351e-015 3.18055e-015
lhumerus -48.6361 -3.48412 83.5417
lradius 38.9663
lwrist 42.5473
lhand -21.9112 5.19093
lfingers 7.12502
lthumb 4.49455 35.1232
rfemur -33.04 19.075 19.4105
rtibia 27.3412
rfoot -12.7303 -14.5548
rtoes 6.49286
lfemur 0 0 0
ltibia 0
lfoot 0 0
ltoes 0
357
root 1.57637 15.7833 31.4091 -191.713 -87.6309 213.914
lowerback -19.9992 2.33892 1.52803
upperback -6.64567 2.21503 1.61823
thorax 3.98498 0.896962 1.34892
lowerneck -20.2413 3.39581 4.65418
upperneck 24.8798 4.08192 -3.58617
head 11.669 1.73205 -1.47844
rclavicle 7.30534e-015 -1.59028e-015
rhumerus -35.7888 4.31597 -81.1403
rradius 22.2674
rwrist -20.8817
rhand -30.0624 -31.7674
rfingers 7.12502
rthumb -3.37774 -61.7204
lclavicle 7.30534e-015 -1.59028e-015
lhumerus -48.6014 -3.94245 83.976
lradius 39.0851
lwrist 42.3782
lhand -21.7174 5.20752
lfingers 7.12502
lthumb 4.6817 35.1358
rfemur -32.7839 18.9866 19.5348
rtibia 27.3305
rfoot -12.7893 -14.514
rtoes 6.35939
lfemur 0 0 0
ltibia 0
lfoot 0 0
ltoes 0
358
root 1.56057 15.7801 31.4128 -192.729 -87.6705 214.809
lowerback -20.2634 2.32428 1.57546
upperback -6.71715 2.17487 1.53717
thorax 4.04992 0.871831 1.23392
lowerneck -20.317 3.39575 4.72136
upperneck 24.8521 4.07158 -3.63406
head 11.6756 1.72763 -1.50811
rclavicle 1.43373e-014 1.59028e-015
rhumerus -36.2783 4.22309 -80.8917
rradius 21.7927
rwrist -20.1411
rhand -29.8141 -31.9804
rfingers 7.12502
rthumb -3.13796 -61.9371
lclavicle 1.43373e-014 1.59028e-015
lhumerus -48.5564 -4.42958 84.3781
lradius 39.2031
lwrist 42.1856
lhand -21.4833 5.19554
lfingers 7.12502
lthumb 4.90768 35.1187
rfemur -32.5645 18.882 19.6365
rtibia 27.3343
rfoot -12.8483 -14.4755
rtoes 6.19941
lfemur 0 0 0
ltibia 0
lfoot 0 0
ltoes 0
359
root 1.54511 15.7771 31.4162 -193.455 -87.712 215.426
lowerback -20.5285 2.30964 1.60279
upperback -6.78648 2.13848 1.45725
thorax 4.11629 0.848716 1.13206
lowerneck -20.3805 3.39417 4.76693
upperneck 24.8198 4.06204 -3.66614
head 11.6771 1.72368 -1.52824
rclavicle -2.5929e-014 -1.19271e-014
rhumerus -36.795 4.12015 -80.6507
rradius 21.4133
rwrist -19.361
rhand -29.4357 -32.1424
rfingers 7.12502
rthumb -2.77245 -62.1041
lclavicle -2.5929e-014 -1.19271e-014
lhumerus -48.5101 -4.90346 84.767
lradius 39.3286
lwrist 41.9759
lhand -21.2413 5.16696
lfingers 7.12502
lthumb 5.14135 35.0846
rfemur -32.3661 18.8018 19.7121
rtibia 27.3472
rfoot -12.9092 -14.462
rtoes 6.06631
lfemur 0 0 0
ltibia 0
lfoot 0 0
ltoes 0
360
root 1.52993 15.7744 31.4198 -194.15 -87.7521 216.024
lowerback -20.7996 2.29422 1.62052
upperback -6.85364 2.10209 1.38579
thorax 4.18681 0.825639 1.04449
lowerneck -20.4283 3.39542 4.79653
upperneck 24.7811 4.06052 -3.69209
head 11.6728 1.72275 -1.54221
rclavicle -1.28092e-014 -1.31198e-014
rhumerus -37.3397 4.06117 -80.4423
rradius 21.1352
rwrist -18.6037
rhand -29.0967 -32.248
rfingers 7.12502
rthumb -2.44506 -62.2137
lclavicle -1.28092e-014 -1.31198e-014
lhumerus -48.4626 -5.35249 85.1475
lradius 39.4588
lwrist 41.7461
lhand -21.0219 5.11529
lfingers 7.12502
lthumb 5.35319 35.0277
rfemur -32.1878 18.738 19.7749
rtibia 27.3644
rfoot -12.9716 -14.4646
rtoes 5.92484
lfemur 0 0 0
ltibia 0
lfoot 0 0
ltoes 0
361
root 1.51422 15.7716 31.4216 -194.665 -87.7713 216.435
lowerback -21.0719 2.27274 1.59286
upperback -6.90881 2.06556 1.34272
thorax 4.26765 0.803204 1.01288
lowerneck -20.4619 3.40021 4.80546
upperneck 24.7355 4.07425 -3.72796
head 11.6637 1.7255 -1.55403
rclavicle -1.53313e-014 -2.22639e-014
rhumerus -37.8928 4.0076 -80.2168
rradius 20.9342
rwrist -17.8074
rhand -28.7842 -32.2826
rfingers 7.12502
rthumb -2.14326 -62.2516
lclavicle -1.53313e-014 -2.22639e-014
lhumerus -48.4134 -5.75407 85.5318
lradius 39.5935
lwrist 41.5002
lhand -20.8533 5.05022
lfingers 7.12502
lthumb 5.51595 34.9584
rfemur -31.9996 18.7464 19.8302
rtibia 27.3793
rfoot -13.0318 -14.514
rtoes 5.82106
lfemur 0 0 0
ltibia 0
lfoot 0 0
ltoes 0
362
root 1.49895 15.7692 31.424 -195.329 -87.7942 217.007
lowerback -21.3494 2.2362 1.55574
upperback -6.96317 2.0097 1.32071
thorax 4.35061 0.771296 1.00425
lowerneck -20.4758 3.416 4.80651
upperneck 24.6816 4.11001 -3.77504
head 11.6487 1.73609 -1.56525
rclavicle 4.72114e-016 -3.57812e-015
rhumerus -38.4604 4.05487 -80.0344
rradius 20.8177
rwrist -17.0803
rhand -28.6156 -32.221
rfingers 7.12502
rthumb -1.98051 -62.1916
lclavicle 4.72114e-016 -3.57812e-015
lhumerus -48.3698 -6.09998 85.9075
lradius 39.7349
lwrist 41.2507
lhand -20.7509 4.97632
lfingers 7.12502
lthumb 5.61489 34.8819
rfemur -31.8235 18.7401 19.8851
rtibia 27.3862
rfoot -13.0868 -14.5536
rtoes 5.74163
lfemur 0 0 0
ltibia 0
lfoot 0 0
ltoes 0
363
root 1.48366 15.7668 31.4261 -196.248 -87.8056 217.837
lowerback -21.6326 2.19044 1.5133
upperback -7.0128 1.94162 1.31836
thorax 4.44035 0.733519 1.01651
lowerneck -20.4776 3.43978 4.82548
upperneck 24.6267 4.1594 -3.85046
head 11.6329 1.75083 -1.58792
rclavicle 2.47735e-014 7.55382e-015
rhumerus -39.0375 4.2083 -79.9061
rradius 20.7805
rwrist -16.4652
rhand -28.472 -32.0651
rfingers 7.12502
rthumb -1.84178 -62.0369
lclavicle 2.47735e-014 7.55382e-015
lhumerus -48.3279 -6.39405 86.2641
lradius 39.8783
lwrist 40.9936
lhand -20.7167 4.90753
lfingers 7.12502
lthumb 5.64788 34.8123
rfemur -31.6454 18.7523 19.9502
rtibia 27.3798
rfoot -13.1335 -14.6008
rtoes 5.68719
lfemur 0 0 0
ltibia 0
lfoot 0 0
ltoes 0
364
root 1.46926 15.7647 31.4295 -197.601 -87.8254 219.118
lowerback -21.9171 2.1449 1.49313
upperback -7.06694 1.86883 1.31754
thorax 4.52627 0.693106 1.01605
lowerneck -20.4828 3.45219 4.83468
upperneck 24.5789 4.19439 -3.92157
head 11.6194 1.75859 -1.60973
rclavicle 2.74323e-014 2.26615e-014
rhumerus -39.6584 4.62534 -79.9291
rradius 20.8589
rwrist -16.1532
rhand -28.309 -31.839
rfingers 7.12502
rthumb -1.68438 -61.8121
lclavicle 2.74323e-014 2.26615e-014
lhumerus -48.2774 -6.65301 86.5938
lradius 40.0075
lwrist 40.7214
lhand -20.7253 4.83791
lfingers 7.12502
lthumb 5.6396 34.7429
rfemur -31.4797 18.7258 20.0238
rtibia 27.3562
rfoot -13.1719 -14.6186
rtoes 5.66395
lfemur 0 0 0
ltibia 0
lfoot 0 0
ltoes 0
365
root 1.45566 15.7627 31.4339 -199.517 -87.8488 220.975
lowerback -22.2 2.09054 1.48433
upperback -7.12675 1.78038 1.33572
thorax 4.60469 0.644785 1.02488
lowerneck -20.4639 3.4653 4.8376
upperneck 24.5218 4.23448 -3.99782
head 11.5979 1.76763 -1.63172
rclavicle 3.67503e-014 2.26615e-014
rhumerus -40.2946 5.15674 -79.9996
rradius 21.006
rwrist -15.9601
rhand -27.9803 -31.5254
rfingers 7.12502
rthumb -1.36689 -61.5007
lclavicle 3.67503e-014 2.26615e-014
lhumerus -48.2281 -6.85488 86.9092
lradius 40.1278
lwrist 40.4366
lhand -20.77 4.76756
lfingers 7.12502
lthumb 5.59639 34.6737
rfemur -31.3236 18.6742 20.1101
rtibia 27.3143
rfoot -13.1977 -14.6212
rtoes 5.62013
lfemur 0 0 0
ltibia 0
lfoot 0 0
ltoes 0
366
root 1.44258 15.7607 31.4388 -201.979 -87.8659 223.388
lowerback -22.4813 2.03334 1.49262
upperback -7.19229 1.68331 1.36457
thorax 4.67598 0.591945 1.03253
lowerneck -20.4337 3.47021 4.80304
upperneck 24.4665 4.26527 -4.03761
head 11.5726 1.77375 -1.63553
rclavicle 1.93815e-014 -9.54166e-015
rhumerus -40.9701 5.88978 -80.2134
rradius 21.2417
rwrist -16.0714
rhand -27.433 -31.1381
rfingers 7.12502
rthumb -0.838316 -61.1162
lclavicle 1.93815e-014 -9.54166e-015
lhumerus -48.1761 -7.00192 87.1901
lradius 40.2301
lwrist 40.1422
lhand -20.8075 4.69573
lfingers 7.12502
lthumb 5.56021 34.6028
rfemur -31.1711 18.6091 20.2138
rtibia 27.2544
rfoot -13.2102 -14.6152
rtoes 5.55453
lfemur 0 0 0
ltibia 0
lfoot 0 0
ltoes 0
367
root 1.43037 15.7589 31.4445 -204.663 -87.8793 226.034
lowerback -22.7573 1.98283 1.51467
upperback -7.26352 1.59145 1.39534
thorax 4.73829 0.541426 1.03495
lowerneck -20.3872 3.46834 4.75769
upperneck 24.4081 4.29112 -4.08027
head 11.5425 1.77642 -1.63954
rclavicle -7.82715e-015 -1.35174e-014
rhumerus -41.6555 6.62371 -80.4536
rradius 21.5074
rwrist -16.2185
rhand -26.5632 -30.6546
rfingers 7.12502
rthumb 0.00178037 -60.6343
lclavicle -7.82715e-015 -1.35174e-014
lhumerus -48.119 -7.12469 87.4519
lradius 40.3188
lwrist 39.8559
lhand -20.8266 4.62149
lfingers 7.12502
lthumb 5.54179 34.529
rfemur -31.0271 18.5369 20.318
rtibia 27.1797
rfoot -13.2109 -14.6068
rtoes 5.47963
lfemur 0 0 0
ltibia 0
lfoot 0 0
ltoes 0
